<?xml version="1.0" standalone="no"?><!DOCTYPE svg PUBLIC "-//W3C//DTD SVG 1.1//EN" "http://www.w3.org/Graphics/SVG/1.1/DTD/svg11.dtd"><svg t="1563171290778" class="icon" viewBox="0 0 1024 1024" version="1.1" xmlns="http://www.w3.org/2000/svg" p-id="6721" xmlns:xlink="http://www.w3.org/1999/xlink" width="48" height="48"><defs><style type="text/css"></style></defs><path d="M512 1018.321627C231.866913 1018.321627 2.839187 791.186691 2.839187 509.160813 2.839187 229.027726 231.866913 0 512 0c49.212569 0 98.425139 7.571165 145.744917 20.820702 28.391867 7.571165 45.426987 37.855823 35.963031 66.24769-7.571165 28.391867-37.855823 45.426987-66.247689 35.963031-37.855823-11.356747-75.711645-17.03512-115.460259-17.03512-221.456562 0-401.271719 179.815157-401.271719 401.271719S290.543438 908.539741 512 908.539741s401.271719-179.815157 401.271719-401.271719c0-56.783734-11.356747-109.781885-34.07024-160.887246-11.356747-26.499076 0-58.676525 28.391867-70.033271 26.499076-11.356747 58.676525 0 70.033271 28.391867 28.391867 64.354898 41.641405 132.495379 41.641405 204.421441 1.892791 282.025878-225.242144 509.160813-507.268022 509.160814z" p-id="6722" fill="#f4ea2a"></path><path d="M828.096118 176.029575m-56.783734 0a56.783734 56.783734 0 1 0 113.567468 0 56.783734 56.783734 0 1 0-113.567468 0Z" p-id="6723" fill="#f4ea2a"></path><path d="M455.216266 461.841035c-7.571165 20.820702-13.249538 41.641405-20.820702 60.569316h240.384473l7.571164-1.892791 30.284659 18.927911c-39.748614 41.641405-96.532348 96.532348-147.637708 145.744917 35.963031 15.142329 68.140481 30.284658 90.853974 43.534196l-24.606285 35.963032c-54.890943-34.07024-164.672828-79.497227-249.848429-104.103512l22.713494-30.284659c35.963031 9.463956 77.604436 24.606285 119.245841 39.748614 37.855823-35.963031 77.604436-73.818854 109.781885-107.889094H375.719039c11.356747-28.391867 22.713494-62.462107 35.963031-100.31793h-140.066543v-39.748614h153.316081c7.571165-20.820702 15.142329-43.534196 20.820703-66.247689h-130.602588v-39.748614H457.109057c5.678373-20.820702 11.356747-41.641405 17.03512-60.569316h43.534196c-5.678373 18.927911-11.356747 39.748614-18.927911 60.569316h213.885398v39.748614H489.286506c-7.571165 20.820702-13.249538 43.534196-20.820702 66.247689h285.81146v39.748614H455.216266z" p-id="6724" fill="#f4ea2a"></path></svg>