<?xml version="1.0" standalone="no"?><!DOCTYPE svg PUBLIC "-//W3C//DTD SVG 1.1//EN" "http://www.w3.org/Graphics/SVG/1.1/DTD/svg11.dtd"><svg t="1562143009284" class="icon" viewBox="0 0 1024 1024" version="1.1" xmlns="http://www.w3.org/2000/svg" p-id="1512" width="64" height="64" xmlns:xlink="http://www.w3.org/1999/xlink"><defs><style type="text/css"></style></defs><path d="M783.36 500.736c-12.288 0-22.528 10.24-22.528 22.528v123.904H267.776V399.36c0-12.288-10.24-22.528-22.528-22.528-12.288 0-22.528 10.24-22.528 22.528v394.24c0 12.288 10.24 22.528 22.528 22.528 12.288 0 22.528-10.24 22.528-22.528v-101.376h493.056V793.6c0 12.288 10.24 22.528 22.528 22.528 12.288 0 22.528-10.24 22.528-22.528v-270.336c0-12.288-10.24-22.528-22.528-22.528z" fill="#9BDFF0" p-id="1513"></path><path d="M512 0C229.376 0 0 229.376 0 512s229.376 512 512 512 512-229.376 512-512S794.624 0 512 0z m-48.128 174.08c71.68 0 129.024 57.344 129.024 129.536s-56.832 129.536-129.024 129.536-128.512-57.344-128.512-129.536C335.36 231.424 392.192 174.08 463.872 174.08z m-117.248 371.712h100.864c12.288 0 22.528 10.24 22.528 22.528s-10.24 22.528-22.528 22.528H346.624c-12.8 0-22.528-10.24-22.528-22.528s10.24-22.528 22.528-22.528zM839.68 793.6c0 31.744-24.576 56.32-55.808 56.32-31.232 0-55.808-24.576-55.808-56.32v-67.584H301.568V793.6c0 31.744-24.576 56.32-55.808 56.32s-56.32-24.576-56.32-56.32V399.36c0-31.744 24.576-56.32 55.808-56.32 31.232 0 55.808 24.576 55.808 56.32v214.016H727.04v-90.112c0-31.744 24.576-56.32 55.808-56.32 31.232 0 56.832 24.576 56.832 56.32V793.6z" fill="#9BDFF0" p-id="1514"></path><path d="M463.872 399.36c52.224 0 95.232-43.008 95.232-95.744s-42.496-95.744-95.232-95.744S368.64 250.88 368.64 303.616 411.648 399.36 463.872 399.36z m-41.472-74.24H450.56v-13.312h-28.16v-13.312H450.56l-28.16-56.32H450.56l13.312 41.472 13.312-41.472h28.16l-28.16 56.32h28.16v13.312h-28.16v13.312h28.16v13.312h-28.16v28.16h-28.16v-28.16h-26.624v-13.312z" fill="#9BDFF0" p-id="1515"></path></svg>