<?xml version="1.0" standalone="no"?><!DOCTYPE svg PUBLIC "-//W3C//DTD SVG 1.1//EN" "http://www.w3.org/Graphics/SVG/1.1/DTD/svg11.dtd"><svg t="1561689510180" class="icon" viewBox="0 0 1024 1024" version="1.1" xmlns="http://www.w3.org/2000/svg" p-id="2052" width="48" height="48" xmlns:xlink="http://www.w3.org/1999/xlink"><defs><style type="text/css"></style></defs><path d="M794.096 1006.48H229.904c-124.864 0-226.432-101.6-226.432-226.416V387.648c0-124.864 101.584-226.448 226.432-226.448h564.192c124.864 0 226.432 101.6 226.432 226.448v392.384c0.032 124.864-101.568 226.448-226.432 226.448zM229.904 224.816c-89.776 0-162.832 73.056-162.832 162.848v392.4c0 89.776 73.056 162.816 162.832 162.816h564.192c89.776 0 162.832-73.056 162.832-162.816V387.648c0-89.792-73.04-162.848-162.832-162.848l-564.192 0.016z" p-id="2053" fill="#f85a36"></path><path d="M67.712 372.8H4.096c0-56.176-0.624-132.368-0.624-132.368 0-123.04 99.888-222.912 222.656-222.912h149.76c135.376 0 213.008 73.008 213.008 200.336H525.28c0-92-48.864-136.72-149.392-136.72h-149.76c-87.68 0-159.04 71.344-159.04 159.04-0.016 0 0.624 76.336 0.624 132.624z" p-id="2054" fill="#f85a36"></path><path d="M506.464 892.176l-7.2-5.056c-185.52-130.272-280.128-248.64-288.944-362.16l-0.08-33.44c8.464-106.064 77.92-160.368 138.992-166.288 84-7.792 122.064 21.728 157.216 61.664 35.232-40.016 73.648-69.456 157.232-61.664 60.976 5.984 130.512 60.224 139.008 165.344l0.08 33.44c-9.008 114.352-103.504 232.816-289.136 363.088l-7.168 5.072z m-130.288-543.344c-7.6 0-15.728 0.432-24.464 1.28-50.976 4.96-109.136 51.664-116.4 142.432l0.064 31.472c8.128 103.248 96.832 214 271.168 337.52 174.32-123.616 263.008-234.352 271.232-338.544l-0.096-31.488c-7.264-89.712-65.424-136.432-116.4-141.392-72.72-7.264-103.008 13.776-145.152 64.064l-9.584 11.456-9.664-11.456c-37.136-44.304-64.656-65.344-120.704-65.344z" p-id="2055" fill="#f85a36"></path><path d="M506.48 911.744l-16.416-11.568c-189.776-133.248-286.496-255.6-295.68-374l-0.128-34.64c9.232-116.32 86-175.728 153.456-182.24a298.16 298.16 0 0 1 27.344-1.328c61.52 0 98.544 21.648 131.408 55.344 32.864-33.696 69.92-55.36 131.472-55.36 8.656 0 17.808 0.448 27.232 1.328 67.488 6.624 144.256 65.776 153.472 180l0.128 34.688c-9.424 120.432-106.224 243.072-295.952 376.224l-16.336 11.552z m-130.304-546.912c-7.008 0-14.512 0.4-22.928 1.216-44.544 4.336-95.456 46.16-102 127.776l0.128 30.16c7.568 95.584 91.088 200.016 255.168 317.904 164.064-117.984 247.616-222.784 255.28-320.144l-0.144-30.192c-6.496-79.664-57.424-121.184-101.952-125.52-66.464-6.576-91.44 10.816-131.344 58.416l-21.792 26.064-21.952-26.032c-34.576-41.248-58.432-59.648-108.464-59.648z" p-id="2056" fill="#f85a36"></path><path d="M484.736 776.304l-103.072-206.144-32.592 65.184-226.512-2.608 0.368-32 206.464 2.384 52.272-104.528 99.824 199.648 99.744-249.456 98.704 151.984 209.84 2.352-0.352 32-226.992-2.544-74.416-114.592z" p-id="2057" fill="#f85a36"></path></svg>