<?xml version="1.0" standalone="no"?><!DOCTYPE svg PUBLIC "-//W3C//DTD SVG 1.1//EN" "http://www.w3.org/Graphics/SVG/1.1/DTD/svg11.dtd"><svg t="1562898568934" class="icon" viewBox="0 0 1024 1024" version="1.1" xmlns="http://www.w3.org/2000/svg" p-id="5440" width="48" height="48" xmlns:xlink="http://www.w3.org/1999/xlink"><defs><style type="text/css"></style></defs><path d="M716.8 0H307.2C137.216 0 0 137.216 0 307.2v409.6c0 169.984 137.216 307.2 307.2 307.2h409.6c169.984 0 307.2-137.216 307.2-307.2V307.2c0-169.984-137.216-307.2-307.2-307.2z m133.12 852.992c-7.168 5.12-19.456 8.192-35.84 8.192H259.072c-19.456 0-34.816-1.024-48.128-4.096-12.288-3.072-22.528-8.192-28.672-15.36-7.168-7.168-12.288-16.384-14.336-28.672-3.072-12.288-4.096-27.648-4.096-46.08V259.072c0-18.432 1.024-34.816 4.096-47.104 3.072-12.288 7.168-22.528 14.336-29.696 7.168-7.168 16.384-12.288 28.672-15.36 12.288-3.072 28.672-4.096 48.128-4.096h542.72c16.384 0 28.672 3.072 34.816 9.216 6.144 6.144 9.216 17.408 9.216 32.768 0 16.384-3.072 27.648-9.216 32.768-6.144 5.12-17.408 7.168-34.816 7.168H450.56c12.288 10.24 13.312 29.696 5.12 58.368 0 1.024 0 1.024-1.024 1.024h311.296c14.336 0 26.624 3.072 34.816 8.192 8.192 6.144 13.312 16.384 13.312 32.768 0 15.36-4.096 26.624-13.312 32.768-8.192 7.168-20.48 10.24-34.816 10.24H610.304c-1.024 18.432-2.048 35.84-4.096 50.176-2.048 14.336-4.096 28.672-6.144 40.96h192.512c13.312 0 24.576 3.072 33.792 9.216 9.216 6.144 13.312 17.408 13.312 32.768 0 15.36-4.096 26.624-13.312 32.768-9.216 6.144-20.48 10.24-33.792 10.24h-153.6c13.312 11.264 24.576 21.504 35.84 30.72 11.264 9.216 21.504 18.432 31.744 27.648l30.72 27.648c10.24 9.216 21.504 19.456 33.792 30.72 17.408 16.384 26.624 30.72 27.648 41.984 1.024 11.264-4.096 22.528-15.36 33.792-13.312 12.288-26.624 17.408-38.912 13.312-13.312-4.096-24.576-11.264-35.84-23.552L675.84 713.728c-11.264-10.24-22.528-21.504-33.792-32.768-12.288-11.264-24.576-22.528-38.912-35.84-14.336-12.288-29.696-26.624-47.104-41.984-19.456 33.792-45.056 63.488-75.776 89.088-30.72 25.6-67.584 47.104-111.616 66.56-18.432 8.192-32.768 11.264-44.032 8.192-11.264-3.072-19.456-11.264-25.6-22.528-13.312-26.624-4.096-47.104 26.624-62.464 23.552-11.264 44.032-21.504 59.392-30.72 16.384-9.216 29.696-18.432 41.984-27.648 11.264-9.216 21.504-18.432 28.672-28.672 8.192-9.216 15.36-20.48 22.528-31.744H321.536c-14.336 0-25.6-3.072-32.768-8.192-7.168-6.144-10.24-17.408-10.24-33.792 0-15.36 3.072-25.6 10.24-32.768 7.168-6.144 17.408-9.216 31.744-9.216H512c3.072-12.288 5.12-25.6 7.168-39.936 2.048-14.336 3.072-31.744 4.096-51.2H417.792c-13.312 22.528-27.648 43.008-44.032 62.464-13.312 16.384-26.624 24.576-39.936 24.576-13.312 0-24.576-6.144-35.84-16.384-10.24-10.24-14.336-20.48-12.288-30.72 2.048-10.24 8.192-21.504 18.432-33.792 19.456-23.552 34.816-44.032 44.032-62.464 9.216-18.432 17.408-36.864 21.504-54.272 4.096-14.336 9.216-25.6 15.36-32.768H277.504c-10.24 0-17.408 2.048-20.48 6.144-3.072 4.096-5.12 10.24-5.12 19.456v480.256c0 8.192 2.048 14.336 5.12 19.456s10.24 7.168 20.48 7.168h536.576c18.432 0 30.72 3.072 36.864 9.216 6.144 6.144 9.216 17.408 9.216 34.816 0 15.36-3.072 25.6-10.24 31.744z" fill="#9BDFF0" p-id="5441"></path></svg>