<?xml version="1.0" standalone="no"?><!DOCTYPE svg PUBLIC "-//W3C//DTD SVG 1.1//EN" "http://www.w3.org/Graphics/SVG/1.1/DTD/svg11.dtd"><svg t="1562029643216" class="icon" viewBox="0 0 1037 1024" version="1.1" xmlns="http://www.w3.org/2000/svg" p-id="2154" width="64.8125" height="64" xmlns:xlink="http://www.w3.org/1999/xlink"><defs><style type="text/css"></style></defs><path d="M1021.342474 420.86435c0-52.118008-42.179658-94.584192-93.991698-94.584192L770.718413 326.280158 770.718413 166.072363c0-51.66673-42.281989-93.652983-94.297666-93.652983L346.969363 72.41938c-52.016701 0-94.297666 41.986253-94.297666 93.652983l0 160.207795L95.921653 326.280158c-51.769061 0-93.875041 42.465161-93.875041 94.584192l0 508.599554c0 52.108798 42.10598 94.536097 93.875041 94.536097l236.585323 0c27.184129 0 49.248657-22.068621 49.248657-49.179073l0-57.739029 260.835633 0 0 57.739029c0 27.110451 22.063505 49.179073 49.248657 49.179073l235.506758 0c51.817156 0 93.996814-42.427298 93.996814-94.536097L1021.343497 420.86435 1021.342474 420.86435zM975.223087 929.463903c0 26.663266-21.48022 48.39215-47.873334 48.39215L688.779216 977.856054l0-65.570391c0-22.801309-18.546402-41.397852-41.325198-41.397852L377.034099 870.88781c-22.873963 0-41.470507 18.596544-41.470507 41.397852l0 65.570391L95.921653 977.856054c-26.328645 0-47.755654-21.728884-47.755654-48.39215L48.165999 420.86435c0-26.668383 21.427008-48.39215 47.755654-48.39215l202.947202 0L298.868855 166.072363c0-26.227338 21.577434-47.508014 48.100508-47.508014l329.451384 0c26.523073 0 48.106648 21.286816 48.106648 47.508014l0 206.398814 202.823382 0c26.39209 0 47.873334 21.723767 47.873334 48.39215L975.22411 929.463903 975.223087 929.463903zM975.223087 929.463903" p-id="2155" fill="#9BDFF0"></path><path d="M543.425733 274.40979l0-79.025844-63.636343-0.928139-0.855484 79.95296c0 3.618411-2.981914 6.605442-6.528694 6.605442l-79.908958 0-0.903579 63.564711 80.812537 0.87902c3.546779 0 6.528694 2.8847 6.528694 6.557346l0 78.243015 63.539128 0.928139c0.583285 0 0.952698-0.441045 0.952698-0.928139l0-78.243015c0-3.672646 2.933819-6.557346 6.53381-6.557346l77.387531 0 1.02433-63.60769-78.412884-0.836041C546.359552 281.015232 543.425733 278.033317 543.425733 274.40979L543.425733 274.40979zM543.425733 274.40979" p-id="2156" fill="#9BDFF0"></path><path d="M293.874097 525.820774 171.614589 525.820774c-8.145517 0-14.753005 6.562463-14.753005 14.777565l0 56.957223c0 8.223289 6.607488 14.824637 14.753005 14.824637l122.259508 0c8.170077 0 14.879895-6.601348 14.879895-14.824637l0-56.957223C308.753993 532.37812 302.049291 525.820774 293.874097 525.820774L293.874097 525.820774zM293.874097 525.820774" p-id="2157" fill="#9BDFF0"></path><path d="M574.622246 525.820774 452.435393 525.820774c-8.215102 0-14.82566 6.562463-14.82566 14.777565l0 56.957223c0 8.223289 6.610558 14.824637 14.82566 14.824637l122.186853 0c8.146541 0 14.82566-6.601348 14.82566-14.824637l0-56.957223C589.447906 532.37812 582.768787 525.820774 574.622246 525.820774L574.622246 525.820774zM574.622246 525.820774" p-id="2158" fill="#9BDFF0"></path><path d="M855.490122 525.820774 733.163075 525.820774c-8.223289 0-14.801101 6.562463-14.801101 14.777565l0 56.957223c0 8.223289 6.576789 14.824637 14.801101 14.824637l122.327046 0c8.098445 0 14.675234-6.601348 14.675234-14.824637l0-56.957223C870.166379 532.37812 863.588567 525.820774 855.490122 525.820774L855.490122 525.820774zM855.490122 525.820774" p-id="2159" fill="#9BDFF0"></path><path d="M293.874097 682.744779 171.614589 682.744779c-8.145517 0-14.753005 6.6607-14.753005 14.782681l0 57.005318c0 8.121981 6.607488 14.675234 14.753005 14.675234l122.259508 0c8.170077 0 14.879895-6.553253 14.879895-14.675234l0-57.005318C308.753993 689.405479 302.049291 682.744779 293.874097 682.744779L293.874097 682.744779zM293.874097 682.744779" p-id="2160" fill="#9BDFF0"></path><path d="M574.622246 682.744779 452.435393 682.744779c-8.215102 0-14.82566 6.6607-14.82566 14.782681l0 57.005318c0 8.121981 6.610558 14.675234 14.82566 14.675234l122.186853 0c8.146541 0 14.82566-6.553253 14.82566-14.675234l0-57.005318C589.447906 689.405479 582.768787 682.744779 574.622246 682.744779L574.622246 682.744779zM574.622246 682.744779" p-id="2161" fill="#9BDFF0"></path><path d="M855.490122 682.744779 733.163075 682.744779c-8.223289 0-14.801101 6.6607-14.801101 14.782681l0 57.005318c0 8.121981 6.576789 14.675234 14.801101 14.675234l122.327046 0c8.098445 0 14.675234-6.553253 14.675234-14.675234l0-57.005318C870.166379 689.405479 863.588567 682.744779 855.490122 682.744779L855.490122 682.744779zM855.490122 682.744779" p-id="2162" fill="#9BDFF0"></path></svg>