<?xml version="1.0" standalone="no"?><!DOCTYPE svg PUBLIC "-//W3C//DTD SVG 1.1//EN" "http://www.w3.org/Graphics/SVG/1.1/DTD/svg11.dtd"><svg t="1563952757593" class="icon" viewBox="0 0 1024 1024" version="1.1" xmlns="http://www.w3.org/2000/svg" p-id="2226" xmlns:xlink="http://www.w3.org/1999/xlink" width="48" height="48"><defs><style type="text/css"></style></defs><path d="M601.1 555.9H422.9c-166.9 0-302.5 133.8-302.5 298.3v17.5c0 87.8 133.5 87.8 302.5 87.8h178.2c162.2 0 302.5 0 302.5-87.8v-17.5c0-164.6-135.7-298.3-302.5-298.3zM844 870.8h-0.1c0 4.1-6.3 18.1-86.6 24.9-51.1 4.3-112.1 4.3-156.6 4.3H423.2c-53.7 0-114.5 0-163.3-4.3-72.1-6.5-79.8-19.6-79.8-24.9v-17.5c0-131.7 109.1-238.9 243.3-238.9h177.5c134.1 0 243.3 107.2 243.3 238.9v17.5zM503.1 64.4C370.6 64.4 263 170.7 263 301.3c0 130.7 107.6 237 240.1 237 132.3 0 240.1-106.3 240.1-237 0-130.6-107.7-236.9-240.1-236.9z m0 415.6c-100.7 0-182.7-80.6-182.7-179.5S402.4 121 503.1 121c100.7 0 182.7 80.5 182.7 179.5S603.8 480 503.1 480z" p-id="2227" fill="#9BDFF0"></path></svg>