<?xml version="1.0" standalone="no"?><!DOCTYPE svg PUBLIC "-//W3C//DTD SVG 1.1//EN" "http://www.w3.org/Graphics/SVG/1.1/DTD/svg11.dtd"><svg t="1563952433412" class="icon" viewBox="0 0 1025 1024" version="1.1" xmlns="http://www.w3.org/2000/svg" p-id="2002" width="48.046875" height="48" xmlns:xlink="http://www.w3.org/1999/xlink"><defs><style type="text/css"></style></defs><path d="M786.027 650.24c43.52-45.547 75.626-99.413 93.226-160.533 17.6-61.12 20.694-123.2 8.32-184.32C852.267 134.613 706.24 8.32 532.373 0h-19.626c-173.974 0-326.187 118.08-369.6 286.827-22.827 86.933-15.574 170.88 21.76 251.626C206.293 629.547 273.6 695.787 365.76 735.147c-22.827 13.44-43.52 30.08-62.08 48.64-45.547 47.68-73.493 104.533-81.813 169.813-2.027 12.373-2.027 25.92-2.027 38.293 1.067 17.6 15.573 31.04 34.133 31.04h1.067c16.533 0 31.04-12.373 33.173-29.013 1.067-4.16 1.067-8.32 1.067-12.373v-1.067c1.067-37.227 10.347-71.467 27.947-100.48 44.48-75.627 111.786-114.88 198.826-114.88h1.067c51.733 0 99.413 17.6 140.8 52.8 50.773 43.52 77.653 99.413 79.68 167.68v1.067c0 3.093 0 7.253 1.067 11.413 4.16 15.573 17.6 25.92 33.173 25.92H776c18.667-2.027 32.107-17.6 31.04-35.2 0-3.093 0-6.187-1.067-10.347-1.066-15.573-2.026-32.106-5.226-48.64-18.667-85.973-66.24-151.146-139.734-194.666 47.36-19.734 89.814-48.64 125.014-84.907z m-271.254 44.48h-2.133c-171.84 0-311.68-140.8-311.68-312.64 0-82.88 32.107-161.493 92.16-220.587 59.093-58.986 137.707-92.16 220.587-92.16 171.84 0 312.64 139.734 312.64 312.64 0 173.014-139.734 312.747-311.574 312.747z" fill="#9BDFF0" p-id="2003"></path><path d="M645.227 499.093c-6.187-5.226-14.507-8.32-22.827-8.32-9.28 0-17.6 3.094-24.853 9.28-3.094 2.027-5.227 5.227-8.32 7.254-7.254 7.253-14.507 13.44-21.76 18.666-16.534 11.414-34.134 17.6-51.734 17.6-9.28 0-19.626-2.026-29.013-5.226-20.693-7.254-40.427-18.667-60.053-37.227-7.254-7.253-16.534-10.347-25.92-10.347-9.28 0-17.6 4.16-24.854 10.347-11.413 14.507-10.346 35.2 4.16 49.707 13.44 13.44 29.014 24.853 45.547 35.2 29.013 17.6 60.053 25.92 91.093 26.88h4.16c4.16 0 8.32 0 11.414-1.067h3.093c41.387-6.187 78.72-26.88 112.853-64.213 6.187-7.254 9.28-15.574 9.28-24.854-0.96-9.173-5.013-17.493-12.266-23.68z" fill="#9BDFF0" p-id="2004"></path></svg>