<?xml version="1.0" standalone="no"?><!DOCTYPE svg PUBLIC "-//W3C//DTD SVG 1.1//EN" "http://www.w3.org/Graphics/SVG/1.1/DTD/svg11.dtd"><svg t="1563412747747" class="icon" viewBox="0 0 1024 1024" version="1.1" xmlns="http://www.w3.org/2000/svg" p-id="2567" width="48" height="48" xmlns:xlink="http://www.w3.org/1999/xlink"><defs><style type="text/css"></style></defs><path d="M983.915934 376.808647L838.446876 147.171873c-12.649483-19.947262-39.286376-25.907115-59.233638-13.379261L53.327503 593.552678c-19.947262 12.771113-25.907115 39.286376-13.379261 59.233639L185.4173 882.423091c12.649483 19.947262 39.286376 25.907115 59.233638 13.379261l725.885735-459.760067c20.068892-12.771113 26.028745-39.286376 13.379261-59.233638z m-28.947856 34.54282L229.082343 870.989904c-6.446371 4.013778-14.838817 2.189334-18.852595-4.257038L64.76069 637.217722c-4.013778-6.446371-2.189334-14.838817 4.257038-18.852596l725.885734-459.760066c6.446371-4.013778 14.838817-2.189334 18.852596 4.257038l145.469058 229.636774c3.892149 6.203112 2.067704 14.717187-4.257038 18.852595z m0 0" p-id="2568" fill="#f4ea2a"></path><path d="M322.250653 239.002257l-3.40563-31.25882 26.758523 16.176744 28.582967-12.892743-7.17615 30.407412 21.041929 23.231262-31.258819 2.554223-15.568595 27.366671-12.041335-28.947856-30.650671-6.446372 23.717781-20.190521z m0 0M486.329047 180.620026l12.649484-28.704597 14.960446 27.60993 31.25882 3.284001L523.669349 205.554104l6.568001 30.650671-28.339708-13.500891-27.123411 15.690225 4.013778-31.01556-23.231262-20.79867 30.7723-5.959853z m0 0M815.093984 660.935503l18.366077 25.420596-31.380449-0.851407-18.487707 25.298966-8.757334-30.042522-29.799264-9.852002 25.907115-17.636299 0.12163-31.380449 24.812448 19.095855 29.799263-9.608742-10.581779 29.556004z m0 0M701.370264 792.782041l3.16237 31.258819-26.636892-16.663262-28.704597 12.527854 7.419408-30.407412-20.920299-23.352892 31.258819-2.310963 15.811855-27.001782 11.798075 29.069486 30.529042 6.68963-23.717781 20.190522z m0 0M536.805351 849.826345l-13.014372 28.582967-14.838817-27.731559-31.25882-3.52726 21.771707-22.623114-6.324741-30.650672 28.218078 13.744151 27.245041-15.446966-4.257038 31.13719 23.109633 21.163559-30.650671 5.351704z m0 0" p-id="2569" fill="#f4ea2a"></path><path d="M211.932563 366.835016l-18.122817-25.542226 31.380449 1.094667L243.92116 317.21012l8.514076 30.164152 29.677634 10.095261L256.084125 374.984202l-0.364889 31.380449-24.690818-19.339114-29.920893 9.365483 10.825038-29.556004z m0 0" p-id="2570" fill="#f4ea2a"></path><path d="M302.060132 182.444471c120.048462-76.01853 266.004038-78.086234 384.471315-18.609336l28.704596-18.122818c-35.150968-19.582373-72.856159-33.934672-112.629053-42.935265-53.030526-11.919705-107.155719-13.500891-160.672764-4.621927-55.341489 9.243853-107.642238 29.191115-155.442689 59.476898s-88.303124 69.08564-120.291721 115.183276c-30.89393 44.516451-52.665637 94.141347-64.706972 147.171873-8.878964 39.772895-12.041335 80.032308-9.365483 120.170091l28.704596-18.122817c-3.284-132.454686 61.179713-263.571446 181.228175-339.589975z m0 0M719.371451 841.555529c-120.048462 76.01853-266.004038 78.086234-384.471314 18.609336l-28.704597 18.122818c35.150968 19.582373 72.856159 33.934672 112.629053 42.935265 53.030526 11.919705 107.155719 13.500891 160.672764 4.621927 55.341489-9.243853 107.642238-29.191115 155.442689-59.476898s88.303124-69.08564 120.291721-115.183276c30.772301-44.516451 52.544008-94.141347 64.585343-147.171873 8.878964-39.772895 12.041335-80.032308 9.365483-120.170091l-28.704597 18.122817c3.284 132.576315-61.179713 263.693075-181.106545 339.589975z m0 0" p-id="2571" fill="#f4ea2a"></path><path d="M388.538811 319.277824c33.569783-21.285188 70.545195-32.596745 107.642238-34.907709l44.273191-28.096448c-58.50386-6.93289-117.12935 6.324742-167.727283 38.191709-50.476304 31.988597-87.451716 79.42416-106.182682 135.252168l44.273191-28.096449c18.122817-32.596745 44.151562-61.058083 77.721345-82.343271z m0 0M632.771143 704.843806c-33.569783 21.285188-70.545195 32.596745-107.642238 34.907708l-44.273192 28.096449c58.50386 6.93289 117.12935-6.324742 167.727284-38.191709 50.476304-31.988597 87.451716-79.42416 106.182682-135.252168l-44.273192 28.096449c-18.122817 32.353486-44.151562 61.058083-77.721344 82.343271z m0 0" p-id="2572" fill="#f4ea2a"></path><path d="M154.036851 613.986459l162.375579-101.439126 60.449935 96.69557-138.901057 86.843568 40.989191 65.55838 117.372609-73.342677 6.203112-30.529042 25.663856 4.865186-8.270816 41.840599L270.558053 797.890486 187.971523 665.55743l22.258225-13.86578 13.74415 22.014966 116.521202-72.856159-32.596745-52.179118-140.117354 87.573346-13.74415-22.258226zM659.043146 555.11771l-109.223423 14.352298-57.287564 89.64105-22.014966-14.109039 45.611118-71.153343-53.395415 6.68963-3.40563-26.028744 75.288751-9.852002 36.245635-56.801045-4.500297-7.176149-124.548759 77.842974-13.74415-22.014966 63.369047-39.529635-14.717188-23.474522-81.735123 51.084451-13.86578-22.258225 81.735123-51.084452-13.62252-21.893336 22.258225-13.86578 13.622521 21.893336 81.491864-50.962822 13.865779 22.258226-81.491863 50.962822 14.717187 23.474522 61.301342-38.313339 27.001782 43.056895-33.691412 52.544008 87.573346-11.433187 3.16237 26.150374zM659.164776 317.575009l-2.432593 29.069486L751.116789 497.708516l-22.258225 13.86578-75.8969-121.508017-1.581185 18.487706-25.785486-2.189334 7.784298-90.857346 25.785485 2.067704z m95.357643-78.816011l19.825633 31.745337 17.14978-10.703409 13.86578 22.258226-17.14978 10.703409 81.735123 130.751871-61.058083 38.191709-13.86578-22.258226 38.799857-24.204299-67.747713-108.493646-85.140753 53.273786-13.86578-22.258226 85.140753-53.273785-19.825632-31.745338 22.136595-13.987409z m-29.312745 161.159282l7.17615-32.110227 31.988597 7.541038-7.297779 31.866968-31.866968-7.297779z" p-id="2573" fill="#f4ea2a"></path></svg>