<?xml version="1.0" standalone="no"?><!DOCTYPE svg PUBLIC "-//W3C//DTD SVG 1.1//EN" "http://www.w3.org/Graphics/SVG/1.1/DTD/svg11.dtd"><svg t="1561972499195" class="icon" viewBox="0 0 1024 1024" version="1.1" xmlns="http://www.w3.org/2000/svg" p-id="3796" width="64" height="64" xmlns:xlink="http://www.w3.org/1999/xlink"><defs><style type="text/css"></style></defs><path d="M793.7 958.8H233.3c-33.7 0-61.3-27.6-61.3-61.3V236.9c0-33.7 27.6-61.3 61.3-61.3h35.8c9.6 0 17.4 7.8 17.4 17.4v41c0 7.6 6.2 13.7 13.7 13.7l423.9-1.1c7.6 0 13.7-6.1 13.7-13.7V193c0-9.6 7.8-17.4 17.4-17.4h38.6c33.7 0 61.3 27.6 61.3 61.3v660.6c-0.1 33.9-27.5 61.3-61.4 61.3z" fill="#9BDFF0" p-id="3797"></path><path d="M256 320.2h512.1V866H256z" fill="#9BDFF0" p-id="3798"></path><path d="M535.3 707.7h-48.6c-7.5 0-13.6-6.1-13.6-13.6V469.6c0-7.5 6.1-13.6 13.6-13.6h48.6c7.5 0 13.6 6.1 13.6 13.6v224.5c0 7.5-6.1 13.6-13.6 13.6zM643.6 133.7c-13.8 0-26.6-1.1-37.1 6.1-8.3-43.1-46.6-75.6-92.7-75.6-46.2 0-84.6 32.8-92.8 76-10.6-7.4-23.6-6.5-37.7-6.5-35.8 0-65.1 37.3-65.1 58.5v8c0 7 5.8 12.7 12.9 12.7h364.6c7.1 0 12.9-5.7 12.9-12.7v-8h0.1c0.1-19.7-29.3-58.5-65.1-58.5z" fill="#9BDFF0" p-id="3799"></path><path d="M386.4 606.1v-48.6c0-7.5 6.1-13.6 13.6-13.6h224.5c7.5 0 13.6 6.1 13.6 13.6v48.6c0 7.5-6.1 13.6-13.6 13.6H400c-7.5 0-13.6-6.1-13.6-13.6z" fill="#9BDFF0" p-id="3800"></path></svg>