<?xml version="1.0" standalone="no"?><!DOCTYPE svg PUBLIC "-//W3C//DTD SVG 1.1//EN" "http://www.w3.org/Graphics/SVG/1.1/DTD/svg11.dtd"><svg t="1563263246185" class="icon" viewBox="0 0 1024 1024" version="1.1" xmlns="http://www.w3.org/2000/svg" p-id="3393" width="64" height="64" xmlns:xlink="http://www.w3.org/1999/xlink"><defs><style type="text/css"></style></defs><path d="M777.788235 224.376471H688.941176v-19.576471c0-21.835294-18.070588-39.905882-39.905882-39.905882H583.529412c5.270588-9.788235 8.282353-21.835294 8.282353-34.635294 0-40.658824-33.129412-74.541176-73.788236-74.541177s-73.788235 33.129412-73.788235 74.541177c0 12.8 3.011765 24.847059 8.282353 34.635294h-54.211765c-21.835294 0-39.905882 18.070588-39.905882 39.905882v19.576471h-89.6c-33.882353 0-60.988235 27.105882-60.988235 60.988235v598.588235c0 33.882353 27.105882 60.988235 60.988235 60.988235h508.988235c33.882353 0 60.988235-27.105882 60.988236-60.988235v-598.588235c-0.752941-33.129412-27.858824-60.988235-60.988236-60.988235z m-233.411764-59.482353h-54.964706c-9.788235-9.035294-16.564706-20.329412-16.564706-34.635294 0-24.094118 19.576471-44.423529 44.423529-44.42353 24.094118 0 44.423529 19.576471 44.42353 44.42353-0.752941 14.305882-6.776471 26.352941-17.317647 34.635294z" fill="#CE8766" p-id="3394"></path><path d="M777.788235 847.811765c0 20.329412-16.564706 37.647059-37.647059 37.647059h-434.447058c-20.329412 0-37.647059-16.564706-37.647059-37.647059v-524.8c0-20.329412 16.564706-37.647059 37.647059-37.647059h51.952941c0 16.564706 13.552941 30.117647 29.364706 30.117647h271.058823c16.564706 0 30.117647-13.552941 30.117647-30.117647h51.952941c20.329412 0 37.647059 16.564706 37.647059 37.647059v524.8z" fill="#F5F5F5" p-id="3395"></path><path d="M380.235294 420.141176m-52.705882 0a52.705882 52.705882 0 1 0 105.411764 0 52.705882 52.705882 0 1 0-105.411764 0Z" fill="#FCAB50" p-id="3396"></path><path d="M680.658824 390.776471H500.705882c-16.564706 0-30.117647 13.552941-30.117647 30.117647s13.552941 30.117647 30.117647 30.117647h179.952942c16.564706 0 30.117647-13.552941 30.117647-30.117647-0.752941-17.317647-13.552941-30.117647-30.117647-30.117647z" fill="#6E9ACA" p-id="3397"></path><path d="M380.235294 569.976471m-52.705882 0a52.705882 52.705882 0 1 0 105.411764 0 52.705882 52.705882 0 1 0-105.411764 0Z" fill="#FCAB50" p-id="3398"></path><path d="M680.658824 539.105882H500.705882c-16.564706 0-30.117647 13.552941-30.117647 30.117647s13.552941 30.117647 30.117647 30.117647h179.952942c16.564706 0 30.117647-13.552941 30.117647-30.117647-0.752941-15.811765-13.552941-30.117647-30.117647-30.117647z" fill="#6E9ACA" p-id="3399"></path><path d="M380.235294 729.6m-52.705882 0a52.705882 52.705882 0 1 0 105.411764 0 52.705882 52.705882 0 1 0-105.411764 0Z" fill="#FCAB50" p-id="3400"></path><path d="M680.658824 699.482353H500.705882c-16.564706 0-30.117647 13.552941-30.117647 30.117647s13.552941 30.117647 30.117647 30.117647h179.952942c16.564706 0 30.117647-13.552941 30.117647-30.117647-0.752941-16.564706-13.552941-30.117647-30.117647-30.117647z" fill="#6E9ACA" p-id="3401"></path><path d="M692.705882 277.082353c0 22.588235-18.823529 41.411765-41.411764 41.411765h-258.258824c-22.588235 0-41.411765-18.823529-41.411765-41.411765v-70.776471c0-22.588235 18.823529-41.411765 41.411765-41.411764H651.294118c22.588235 0 41.411765 18.823529 41.411764 41.411764v70.776471z" fill="#868686" p-id="3402"></path></svg>