<?xml version="1.0" standalone="no"?><!DOCTYPE svg PUBLIC "-//W3C//DTD SVG 1.1//EN" "http://www.w3.org/Graphics/SVG/1.1/DTD/svg11.dtd"><svg t="1566289037827" class="icon" viewBox="0 0 1664 1024" version="1.1" xmlns="http://www.w3.org/2000/svg" p-id="1632" width="78" height="48" xmlns:xlink="http://www.w3.org/1999/xlink"><defs><style type="text/css"></style></defs><path d="M1312.19776 191.488a125.696 123.392 0 1 0 251.392 0 125.696 123.392 0 1 0-251.392 0Z" fill="#1296db" p-id="1633"></path><path d="M1544.38976 379.136c-22.08-8.64-106.496-13.632-106.496-13.632s-84.544 4.992-106.688 13.632c-131.392 50.88-111.36 227.776-111.36 227.776l9.536 400.448h416.832l9.536-400.448c0.064 0 20.096-176.896-111.36-227.776z" fill="#1296db" p-id="1634"></path><path d="M860.61376 135.872a125.696 123.392 0 1 0 251.392 0 125.696 123.392 0 1 0-251.392 0Z" fill="#1296db" p-id="1635"></path><path d="M1092.80576 323.52c-22.08-8.64-106.496-13.632-106.496-13.632s-84.544 4.992-106.688 13.632c-131.392 50.88-111.36 227.776-111.36 227.776l9.536 456.064h416.832l9.536-456.064c0.064 0 20.096-176.896-111.36-227.776z m-199.744 513.92l-50.816-78.4 38.272-377.088h25.152l36.8 385.792-49.408 69.696z" fill="#1296db" p-id="1636"></path><path d="M410.88576 161.792a125.696 123.392 0 1 0 251.392 0 125.696 123.392 0 1 0-251.392 0Z" fill="#1296db" p-id="1637"></path><path d="M643.07776 349.504c-22.08-8.64-106.496-13.632-106.496-13.632s-84.544 4.992-106.688 13.632c-8.192 3.2-15.808 6.848-22.912 10.944 89.92 30.336 88 192.576 88 192.576l-9.472 456.192h259.328l9.536-432c0.128 0 20.16-176.832-111.296-227.712z" fill="#1296db" p-id="1638"></path><path d="M93.44576 193.344a125.696 123.392 0 1 0 251.392 0 125.696 123.392 0 1 0-251.392 0Z" fill="#1296db" p-id="1639"></path><path d="M325.63776 380.992c-22.144-8.576-106.56-13.632-106.56-13.632s-84.544 5.056-106.624 13.632C-18.93824 431.872 1.09376 608.768 1.09376 608.768l9.536 400.512h416.832l9.536-400.512s20.032-176.896-111.36-227.776z" fill="#1296db" p-id="1640"></path></svg>