<?xml version="1.0" standalone="no"?><!DOCTYPE svg PUBLIC "-//W3C//DTD SVG 1.1//EN" "http://www.w3.org/Graphics/SVG/1.1/DTD/svg11.dtd"><svg t="1562146487508" class="icon" viewBox="0 0 1147 1024" version="1.1" xmlns="http://www.w3.org/2000/svg" p-id="2366" xmlns:xlink="http://www.w3.org/1999/xlink" width="71.6875" height="64"><defs><style type="text/css"></style></defs><path d="M524.579375 250.75343750000002c-7.844062500000001-5.128125-18.365625-2.9278125000000004-23.495625 4.9190625L434.665625 357.27312500000005l-64.63312499999999-101.4328125c-5.03625-7.906874999999999-15.5278125-10.231875-23.4375-5.19375-7.9059375 5.0371875-10.231875 15.529687500000001-5.19375 23.436562499999997l61.3275 96.2475h-47.011875c-9.375 0-16.974375000000002 7.600312499999999-16.974375000000002 16.974375000000002s7.599375 16.974375000000002 16.974375000000002 16.974375000000002h62.8125v48.6609375h-62.8125c-9.375 0-16.974375000000002 7.599375-16.974375000000002 16.974375000000002 0 9.375 7.599375 16.974375000000002 16.974375000000002 16.974375000000002h62.8125v65.634375c0 9.375 7.600312499999999 16.9753125 16.974375000000002 16.9753125 9.375 0 16.974375000000002-7.600312499999999 16.974375000000002-16.974375000000002v-65.6353125h62.814375c9.375 0 16.974375000000002-7.600312499999999 16.974375000000002-16.974375000000002 0-9.375-7.600312499999999-16.974375000000002-16.974375000000002-16.974375000000002h-62.814375v-48.6609375h62.814375c9.375 0 16.974375000000002-7.599375 16.974375000000002-16.974375000000002s-7.600312499999999-16.974375000000002-16.974375000000002-16.974375000000002h-48.60375l62.8125-96.080625c5.128125-7.846874999999999 2.9259375-18.3675-4.9209375-23.4965625zM975.558125 601.0784375000001c-12.065624999999999-28.52625-29.33625-54.1434375-51.331875-76.138125-21.995625-21.9965625-47.611875-39.26625-76.13906250000001-51.3309375-29.540625000000002-12.4959375-60.91406249999999-18.830624999999998-93.2465625-18.830624999999998s-63.705937500000005 6.335625-93.2465625 18.830624999999998c-28.528125 12.065624999999999-54.144375 29.33625-76.13906250000001 51.3309375s-39.2653125 47.611875-51.3328125 76.138125c-12.495 29.5425-18.829687500000002 60.915-18.829687500000002 93.2475s6.335625 63.705937500000005 18.8315625 93.2475c12.065624999999999 28.528125 29.33625 54.144375 51.331875 76.13906250000001 21.995625 21.995625 47.611875 39.2653125 76.13906250000001 51.3328125C691.1365625 927.5403125 722.5090625 933.875 754.840625 933.875s63.706875-6.335625 93.2475-18.829687500000002c0.946875-0.40125 1.8768749999999998-0.8015625 2.803125-1.2028124999999998 11.9015625-5.152500000000001 23.502187499999998-10.978125 34.3134375-18.178125 3.9028125000000005-2.600625 7.755-5.371875 11.35125-8.33625 5.769375-4.7475000000000005 6.6328125-13.2675 1.9125-19.073437499999997-4.73625-5.827500000000001-13.299375-6.7096875-19.126875000000002-1.9734375a116.63437499999999 116.63437499999999 0 0 1-7.8618749999999995 5.833125000000001c-26.188125 17.8453125-58.1465625 28.3725-89.3784375 32.6821875a199.835625 199.835625 0 0 1-27.260625 1.884375c-56.7215625 0-110.0484375-22.089375-150.1565625-62.19749999999999-40.1090625-40.1090625-62.1984375-93.43593750000001-62.1984375-150.1575s22.089375-110.0484375 62.1984375-150.1575c40.108124999999994-40.108124999999994 93.435-62.19749999999999 150.1565625-62.19749999999999 56.7225 0 110.0484375 22.089375 150.1575 62.19749999999999 40.108124999999994 40.1090625 62.19749999999999 93.43593750000001 62.19749999999999 150.1575a213.99374999999998 213.99374999999998 0 0 1-4.7775 45.0309375c-0.133125 0.4640625-0.24375000000000002 0.9384374999999999-0.328125 1.425-0.00375 0.020624999999999998-0.042187499999999996 0.2390625-0.12 0.635625a210.0628125 210.0628125 0 0 1-11.6971875 36.2390625 55.003125000000004 55.003125000000004 0 0 0-0.79125 1.9500000000000002 183.82500000000002 183.82500000000002 0 0 1-4.3190625 9.0215625c-3.4284375000000002 6.6815625-0.79125 14.87625 5.8903125 18.305625a13.5421875 13.5421875 0 0 0 6.196875 1.501875c4.936875 0 9.700312499999999-2.698125 12.10875-7.3921874999999995 12.939375-25.2159375 18.0075-47.85 19.230937500000003-54.044062499999995 3.855-17.165625 5.8003125-34.7728125 5.8003125-52.674375 0-32.331562500000004-6.3374999999999995-63.70406249999999-18.8325-93.2465625z" fill="#008AFF" p-id="2367"></path><path d="M643.8228125 649.4778125c0 10.8496875 8.795625 19.6453125 19.6453125 19.6453125h181.28062500000001a19.6453125 19.6453125 0 0 0 16.48125-30.3375L816.06875 569.1593750000001c-5.904375-9.1021875-18.0675-11.6971875-27.1715625-5.79-9.1021875 5.904375-11.6953125 18.0703125-5.79 27.1715625l25.4859375 39.2915625H663.4681250000001c-10.8496875 0-19.6453125 8.793750000000001-19.6453125 19.6453125zM865.8584375 739.1759375c0-10.8496875-8.795625-19.6453125-19.6453125-19.6453125H664.930625a19.648125 19.648125 0 0 0-16.48125 30.3375l45.163125 69.62625c3.763125 5.8003125 10.066875 8.956875 16.5 8.956875 3.6628125000000002 0 7.3696874999999995-1.0237500000000002 10.6725-3.1659374999999996 9.1021875-5.904375 11.6953125-18.069375 5.79-27.1715625l-25.4859375-39.290625h145.12125c10.852500000000001-0.001875 19.648125-8.7975 19.648125-19.6471875zM438.08750000000003 651.7568749999999H339.86187500000005c-10.8496875 0-19.6453125 8.7946875-19.6453125 19.644375s8.795625 19.6453125 19.6453125 19.6453125H438.08750000000003c10.8496875 0 19.644375-8.795625 19.644375-19.6453125s-8.7946875-19.644375-19.644375-19.644375zM640.7121875 291.4090625c-10.8496875 0-19.644375 8.795625-19.644375 19.6453125s8.7946875 19.644375 19.644375 19.644375h98.22562500000001c10.8496875 0 19.6453125-8.7946875 19.6453125-19.644375s-8.795625-19.6453125-19.6453125-19.6453125H640.7121875z" fill="#008AFF" p-id="2368"></path><path d="M496.169375 821.26625h-91.9021875c-2.59875 0-5.105625 0.39375-7.4653125000000005 1.1221875000000001h-131.38125c-21.165937500000002 0-38.3840625-17.2190625-38.3840625-38.3840625V179.02531249999998c0-21.165 17.22-38.3840625 38.383125-38.3840625h545.6953125c21.165937500000002 0 38.385000000000005 17.2190625 38.385000000000005 38.3840625V409.878125c0 13.9490625 11.3071875 25.258125 25.258125 25.258125 13.08 0 23.8378125-9.943125 25.1278125-22.6828125l0.1303125 0.0065625V179.02531249999998c0-49.019999999999996-39.88125-88.9003125-88.90125-88.9003125H265.4196875c-49.0190625 0-88.8984375 39.88125-88.8984375 88.9003125v604.978125c0 49.0190625 39.879374999999996 88.9003125 88.8984375 88.9003125l151.2028125-1.123125h79.546875c13.950000000000001 0 25.258125-11.3071875 25.258125-25.258125s-11.308124999999999-25.25625-25.258125-25.25625z" fill="#008AFF" p-id="2369"></path></svg>