<?xml version="1.0" standalone="no"?><!DOCTYPE svg PUBLIC "-//W3C//DTD SVG 1.1//EN" "http://www.w3.org/Graphics/SVG/1.1/DTD/svg11.dtd"><svg t="1563170149582" class="icon" viewBox="0 0 1024 1024" version="1.1" xmlns="http://www.w3.org/2000/svg" p-id="4902" width="48" height="48" xmlns:xlink="http://www.w3.org/1999/xlink"><defs><style type="text/css"></style></defs><path d="M512 928c230.4 0 416-185.6 416-416S742.4 96 512 96 96 281.6 96 512s185.6 416 416 416z m0 64C246.4 992 32 777.6 32 512S246.4 32 512 32s480 214.4 480 480-214.4 480-480 480z" fill="#9BDFF0" p-id="4903"></path><path d="M656 470.4c16-22.4 32-41.6 41.6-64l-38.4-19.2c-9.6 22.4-22.4 41.6-41.6 64l35.2 19.2h-64v-89.6h134.4v-44.8h-108.8c9.6-12.8 16-25.6 22.4-38.4l-48-16c-9.6 19.2-19.2 38.4-28.8 54.4h-99.2c-9.6-19.2-16-35.2-25.6-51.2l-51.2 9.6c9.6 12.8 16 28.8 22.4 41.6H304v44.8h134.4v89.6h-64l35.2-16c-9.6-22.4-19.2-41.6-32-64l-41.6 12.8c12.8 19.2 22.4 41.6 32 67.2H284.8v44.8h454.4v-44.8h-83.2z m-118.4 0h-51.2v-89.6h51.2v89.6zM348.8 544v214.4h48V736h230.4v22.4h48V544H348.8z m278.4 150.4h-230.4v-35.2h230.4v35.2z m0-73.6h-230.4v-38.4h230.4v38.4z" fill="#9BDFF0" p-id="4904"></path></svg>