<?xml version="1.0" standalone="no"?><!DOCTYPE svg PUBLIC "-//W3C//DTD SVG 1.1//EN" "http://www.w3.org/Graphics/SVG/1.1/DTD/svg11.dtd"><svg t="1561974292617" class="icon" viewBox="0 0 1732 1024" version="1.1" xmlns="http://www.w3.org/2000/svg" p-id="4752" width="108.25" height="64" xmlns:xlink="http://www.w3.org/1999/xlink"><defs><style type="text/css"></style></defs><path d="M866.461538 835.662769l-198.813538 109.883077a78.769231 78.769231 0 0 1-115.790769-81.604923L590.769231 625.033846 422.203077 452.135385a78.769231 78.769231 0 0 1 44.425846-132.804923l229.454769-35.052308 99.091693-211.101539a78.769231 78.769231 0 0 1 142.572307 0l99.091693 211.101539 229.454769 35.052308a78.769231 78.769231 0 0 1 44.504615 132.804923L1142.153846 625.033846l38.990769 238.907077a78.769231 78.769231 0 0 1-115.869538 81.604923L866.461538 835.662769zM78.769231 630.153846a39.384615 39.384615 0 0 1 0-78.769231h236.307692a39.384615 39.384615 0 0 1 0 78.769231H78.769231z m1339.076923 0a39.384615 39.384615 0 1 1 0-78.769231h236.307692a39.384615 39.384615 0 1 1 0 78.769231h-236.307692z" fill="#9BDFF0" p-id="4753"></path></svg>