<?xml version="1.0" standalone="no"?><!DOCTYPE svg PUBLIC "-//W3C//DTD SVG 1.1//EN" "http://www.w3.org/Graphics/SVG/1.1/DTD/svg11.dtd"><svg t="1565657289957" class="icon" viewBox="0 0 1024 1024" version="1.1" xmlns="http://www.w3.org/2000/svg" p-id="2233" width="48" height="48" xmlns:xlink="http://www.w3.org/1999/xlink"><defs><style type="text/css"></style></defs><path d="M904.983273 354.920727H722.385455l-142.917819-142.894545a78.545455 78.545455 0 1 0-134.423272 0.570182L302.615273 354.909091H119.063273A26.181818 26.181818 0 0 0 93.090909 381.160727V904.727273c0 14.196364 11.636364 26.228364 25.972364 26.228363h785.873454A26.181818 26.181818 0 0 0 930.909091 904.727273V381.160727a26.181818 26.181818 0 0 0-25.925818-26.24z m-419.095273-109.184a78.464 78.464 0 0 0 52.945455-0.256l109.451636 109.44H376.657455l109.230545-109.184z m-288.349091 266.635637h256.244364v46.580363H197.538909v-46.580363z m419.316364 256.232727H197.538909V722.036364H616.843636v46.592z m151.412363-104.820364H197.538909V617.192727h570.728727v46.592z" fill="#FC3D6A" p-id="2234"></path></svg>