<?xml version="1.0" standalone="no"?><!DOCTYPE svg PUBLIC "-//W3C//DTD SVG 1.1//EN" "http://www.w3.org/Graphics/SVG/1.1/DTD/svg11.dtd"><svg t="1564124432299" class="icon" viewBox="0 0 1024 1024" version="1.1" xmlns="http://www.w3.org/2000/svg" p-id="3335" xmlns:xlink="http://www.w3.org/1999/xlink" width="48" height="48"><defs><style type="text/css"></style></defs><path d="M512 63.488c-247.808 0-448.512 200.704-448.512 448.512s200.704 448.512 448.512 448.512 448.512-200.704 448.512-448.512-201.216-448.512-448.512-448.512z m-146.944 673.28h-59.392c-1.024 0-2.048 0.512-3.072 0.512-11.776 0-20.992-9.216-20.992-20.992v-250.88c0-11.776 9.216-20.992 20.992-20.992h62.976l-0.512 292.352z m417.792-246.784c0 2.56 0 4.608-0.512 7.168L737.28 696.32c-0.512 2.56-1.536 4.608-3.072 6.656-4.608 9.728-12.288 18.432-22.016 24.576-10.24 6.656-22.016 9.728-33.28 9.728h-271.872v-299.52c47.616-16.896 81.92-61.44 83.456-114.688V317.44c0-33.792 16.896-60.928 47.104-60.928 36.352 0 69.12 37.888 69.12 71.68 0 59.392-18.944 83.968-27.136 95.232h140.8c1.024 0 2.048 0 3.072 0.512 19.968 1.024 38.912 11.264 50.176 29.184 7.68 11.264 10.24 24.576 9.216 36.864z" fill="#1296db" p-id="3336"></path></svg>