<?xml version="1.0" standalone="no"?><!DOCTYPE svg PUBLIC "-//W3C//DTD SVG 1.1//EN" "http://www.w3.org/Graphics/SVG/1.1/DTD/svg11.dtd"><svg t="1564469648467" class="icon" viewBox="0 0 1024 1024" version="1.1" xmlns="http://www.w3.org/2000/svg" p-id="1992" width="48" height="48" xmlns:xlink="http://www.w3.org/1999/xlink"><defs><style type="text/css"></style></defs><path d="M931.349019 210.189474L872.064808 269.473684 726.549019 123.957895l59.28421-59.284211c5.389474-5.389474 10.778947-10.778947 21.557895-10.778947 5.389474 0 16.168421 5.389474 21.557895 10.778947l102.4 102.4c10.778947 10.778947 10.778947 32.336842 0 43.11579zM268.443756 738.357895l5.389473-118.568421 107.789474 107.789473-113.178947 10.778948z m700.631579-614.4L866.675335 21.557895c-32.336842-32.336842-91.621053-32.336842-123.957895 0l-80.842105 97.010526L225.327966 538.947368l-26.947368 253.305264 10.778947 16.168421 247.91579-32.336842 420.378947-441.936843 97.010526-80.842105c32.336842-32.336842 32.336842-91.621053-5.389473-129.347368z m-86.231579 296.421052c-16.168421 0-26.947368 10.778947-26.947369 32.336842v393.431579c0 37.726316-32.336842 75.452632-70.063158 75.452632H166.043756c-37.726316 0-86.231579-32.336842-86.231579-75.452632V226.357895c0-37.726316 43.115789-80.842105 86.231579-80.842106h334.147368c16.168421 0 32.336842-10.778947 32.336842-26.947368s-16.168421-32.336842-32.336842-32.336842H166.043756C90.591124 86.231579 25.91744 145.515789 25.91744 226.357895v619.789473c0 80.842105 64.673684 129.347368 140.126316 129.347369H780.443756c75.452632 0 123.957895-53.894737 123.957895-129.347369V452.715789c5.389474-16.168421-5.389474-32.336842-21.557895-32.336842z" fill="#9BDFF0" p-id="1993"></path></svg>