<?xml version="1.0" standalone="no"?><!DOCTYPE svg PUBLIC "-//W3C//DTD SVG 1.1//EN" "http://www.w3.org/Graphics/SVG/1.1/DTD/svg11.dtd"><svg t="1563953155734" class="icon" viewBox="0 0 1417 1024" version="1.1" xmlns="http://www.w3.org/2000/svg" p-id="3232" width="66.421875" height="48" xmlns:xlink="http://www.w3.org/1999/xlink"><defs><style type="text/css"></style></defs><path d="M1128.59136 90.12451555h-908.65891555c-71.66065778 0.07281778-129.73283555 58.14613333-129.80565334 129.79996445v584.14421333c0.07281778 71.66065778 58.14613333 129.73283555 129.80110222 129.80565334h908.66574222c71.66065778-0.07281778 129.73397333-58.14613333 129.80565334-129.79996445v-584.14421333c-0.07281778-71.66065778-58.14613333-129.73283555-129.79996444-129.80565334zM1193.48906667 804.06983111c-0.04664889 35.82976-29.07932445 64.86243555-64.90453334 64.91022222h-908.65208888c-35.82520889-0.05347555-64.85105778-29.08387555-64.8965689-64.90453333v-584.1408c0.04551111-35.82976 29.07932445-64.86243555 64.90453334-64.90908445h908.65208889c35.82520889 0.05347555 64.85105778 29.08387555 64.89770667 64.90453334z" fill="#9BDFF0" p-id="3233"></path><path d="M1005.95712 537.7024c35.04810667-29.79043555 57.72515555-73.60056889 57.72515555-123.05294222 0-89.46688-72.79388445-162.26190222-162.26190222-162.26190223s-162.24824889 72.79502222-162.24824888 162.26190223c0 49.45237333 22.71118222 93.26250667 57.76042666 123.05294222-72.74837333 37.91075555-122.66723555 113.91772445-122.66723556 201.46744889 0 17.92341333 14.53169778 32.45397333 32.45397334 32.45397333 17.92341333 0 32.45397333-14.53169778 32.45397333-32.45397333 0-89.46688 72.79502222-162.26076445 162.26076445-162.26076444s162.26190222 72.79388445 162.26190222 162.26076444c0 0 0 0 0 0 0 17.92341333 14.53169778 32.45397333 32.45397333 32.45397333 17.92341333 0 32.45397333-14.53169778 32.45397333-32.45397333 0 0 0 0 0 0-0.01024-87.54972445-49.89610667-163.55783111-122.64675555-201.46744889zM804.06983111 414.64832c0-53.76796445 43.58599111-97.35168 97.35281778-97.35168s97.35168 43.58599111 97.35168 97.35168c0 53.76796445-43.58599111 97.35168-97.35168 97.35168-53.74179555-0.05916445-97.29137778-43.61102222-97.35168-97.34712889zM641.80565333 317.28412445h-389.42037333c-17.92341333 0-32.45397333 14.53169778-32.45397333 32.45397333s14.53169778 32.45397333 32.45397333 32.45397333h389.42037333c17.92341333 0 32.45397333-14.53169778 32.45397334-32.45397333s-14.53169778-32.45397333-32.45397334-32.45397333zM609.35168 479.54602667h-356.9664c-17.92341333 0-32.45397333 14.53169778-32.45397333 32.45397333s14.53169778 32.45397333 32.45397333 32.45397333h356.9664c17.92341333 0 32.45397333-14.53169778 32.45397333-32.45397333s-14.53169778-32.45397333-32.45397333-32.45397333zM512 641.80565333h-259.61358222c-17.92341333 0-32.45397333 14.53169778-32.45397333 32.45397334s14.53169778 32.45397333 32.45397333 32.45397333h259.61358222c17.92341333 0 32.45397333-14.53169778 32.45397333-32.45397333s-14.53169778-32.45397333-32.45397333-32.45397334z" fill="#9BDFF0" p-id="3234"></path></svg>