<?xml version="1.0" standalone="no"?><!DOCTYPE svg PUBLIC "-//W3C//DTD SVG 1.1//EN" "http://www.w3.org/Graphics/SVG/1.1/DTD/svg11.dtd"><svg t="1562641795619" class="icon" viewBox="0 0 1024 1024" version="1.1" xmlns="http://www.w3.org/2000/svg" p-id="1549" width="64" height="64" xmlns:xlink="http://www.w3.org/1999/xlink"><defs><style type="text/css"></style></defs><path d="M991.326856 151.4749c-0.00614-49.719378-35.46063-85.178985-85.278245-85.438904-10.076496-0.053212-20.154016-0.008186-30.202882-0.008186-0.102331-23.820522-10.209526-37.240159-28.265764-36.434817-6.898107 0.308015-14.522762 3.596921-20.194948 7.745405-9.136078 6.681166-10.568706 17.311271-8.496511 28.197202-37.012985 0-72.882937 0-108.762099 0 0.565888-22.100344-9.312086-35.948747-26.962072-35.897581-6.915503 0.019443-14.662955 2.955308-20.539802 6.827499-9.990538 6.582929-10.773368 17.836227-9.749038 29.203112-36.774555 0-72.66702 0-108.579951 0 1.336438-22.614044-10.426467-36.989449-29.495778-36.429701-18.426675 0.541329-29.500894 15.045671-27.453259 36.196387-36.193317 0-72.363098 0-108.524692 0-0.210801-23.223934-10.296507-36.622082-28.285207-35.842323-6.89913 0.298805-14.530948 3.569292-20.206204 7.709589-9.153474 6.677073-10.645454 17.295921-8.465812 28.26781-37.072337 0-72.951499 0-108.839871 0 0.64673-22.722514-10.412141-36.453237-28.895097-36.349883-18.432815 0.102331-29.112038 13.424754-28.311813 36.807301-10.942213 0-21.069875-0.063445-31.196513 0.010233-49.089022 0.361227-84.585467 36.004005-84.590584 85.114516-0.030699 253.574253-0.030699 507.149529 0 760.723781 0.00614 49.161676 35.511795 84.887342 84.670401 84.904739 227.097228 0.076748 454.194456 0.074701 681.290661-0.229221 4.994758-0.00614 11.17348-2.713808 14.798031-6.225795 54.849212-53.149501 109.303428-106.706277 164.057473-159.954015 4.801353-4.669346 6.620791-9.333576 6.615675-15.940041C991.313553 593.44801 991.354486 372.461967 991.326856 151.4749zM946.209286 248.290923c0 182.299953 0.002047 364.600929-0.00307 546.900881 0 14.298658-5.220908 19.620873-19.280112 19.639293-19.689435 0.026606-39.380916-0.116657-59.069327 0.035816-37.810141 0.293689-62.455447 24.969695-62.591547 62.562894-0.070608 19.349697 0.039909 38.700417-0.034792 58.051137-0.042979 11.0558-5.723352 16.887622-16.623609 16.889669-221.00037 0.027629-442.001763 0.058328-663.002133-0.039909-25.412786-0.011256-40.421618-15.322987-40.426735-40.790008-0.052189-221.679845-0.032746-443.35969-0.011256-665.039535 0-2.983961 0.304945-5.967922 0.511653-9.763364 287.271726 0 573.308321 0 860.532975 0C946.209286 241.011122 946.209286 244.651023 946.209286 248.290923z" p-id="1550" fill="#9BDFF0"></path><path d="M247.111051 742.841505c0.052189 63.990407 45.737694 109.624746 109.678982 109.699448 52.613288 0.061398 105.225553 0.01228 157.838841 0.01228 53.29174 0 106.58348 0.047072 159.875221-0.01228 63.97915-0.070608 109.707634-45.711088 109.74652-109.620653 0.062422-101.831246-0.997724-203.675796 0.396019-305.488623 0.838088-61.244876-47.725978-110.902856-110.576421-110.658286-105.563244 0.411369-211.130581 0.431835-316.693826-0.008186-62.553685-0.260943-111.446231 48.965202-110.647029 110.586654C248.050446 539.166733 247.028163 641.010259 247.111051 742.841505zM752.257969 732.481554c0 11.550057-2.077312 22.834055-6.178723 33.532721l-7.607258-2.912329c3.740184-9.767458 5.637394-20.069081 5.637394-30.620391l8.148587-0.345877L752.257969 732.481554zM752.257969 699.338712l-8.148587 0 0-32.800034 8.148587 0L752.257969 699.338712zM752.257969 633.738645l-8.148587 0 0-32.79594 8.148587 0L752.257969 633.738645zM752.257969 568.141648l-8.148587 0 0-32.800034 8.148587 0L752.257969 568.141648zM752.257969 502.544651l-8.148587 0 0-32.800034 8.148587 0L752.257969 502.544651zM741.845829 403.882584c5.279237 10.215666 8.593725 21.198811 9.847276 32.643468l-8.100492 0.887206c-1.146103-10.443863-4.16588-20.466124-8.987698-29.786397L741.845829 403.882584zM728.273718 795.090497c-7.702426 8.574283-16.786315 15.576767-26.995841 20.813025l-3.715625-7.249101c9.322319-4.78191 17.61417-11.17655 24.648376-19.005866L728.273718 795.090497zM691.829691 359.229594c10.722202 4.075829 20.526499 10.036587 29.128411 17.717524l-5.426593 6.079462c-7.857968-7.014764-16.805758-12.459776-26.597775-16.181541L691.829691 359.229594zM405.808446 826.187749 373.009436 826.187749l0-8.148587 32.797987 0L405.807423 826.187749zM471.405443 826.187749l-32.797987 0 0-8.148587 32.797987 0L471.405443 826.187749zM537.003464 826.187749l-32.797987 0 0-8.148587 32.797987 0L537.003464 826.187749zM602.600461 826.187749l-32.797987 0 0-8.148587 32.797987 0L602.600461 826.187749zM668.609851 825.654606c-3.306302 0.354064-6.652514 0.533143-9.950629 0.533143-0.039909 0-0.075725 0-0.11154 0l-23.146163 0 0-8.148587 23.150256 0c2.975774 0.016373 6.138814-0.159636 9.190313-0.485047L668.609851 825.654606zM663.183258 647.888923c-29.033243 0-57.997925 0-88.008426 0 0 29.321816 0 57.334823 0 86.178755-39.862893 0-78.656431 0-118.465089 0 0-28.241204 0-56.286957 0-85.664032-29.92659 0-58.891272 0-88.494497 0 0-39.184441 0-77.030397 0-116.603695 29.423123 0 58.124815 0 88.051405 0 0-29.308513 0-57.642838 0-86.453001 39.827077 0 78.409814 0 118.28908 0 0 28.282137 0 56.579623 0 86.238107 30.175253 0 59.102073 0 88.62855 0C663.183258 570.823734 663.183258 608.687086 663.183258 647.888923zM625.490797 353.148086l32.797987 0 0 8.148587-32.797987 0L625.490797 353.148086zM559.8938 353.148086l32.797987 0 0 8.148587-32.797987 0L559.8938 353.148086zM494.294756 353.148086l32.800034 0 0 8.148587-32.800034 0L494.294756 353.148086zM428.697759 353.148086l32.797987 0 0 8.148587L428.697759 361.296673 428.697759 353.148086zM372.920408 353.148086l22.977317 0 0 8.148587-22.977317 0c-3.127224 0-6.275937 0.168846-9.360182 0.505513l-0.87902-8.100492C366.053 353.335351 369.498472 353.148086 372.920408 353.148086zM339.475691 820.044842c-10.717086-4.098341-20.503986-10.078543-29.092595-17.776875l5.438872-6.063089c7.841595 7.030114 16.780175 12.489452 26.561959 16.225543L339.475691 820.044842zM330.029552 363.518271l3.736091 7.240915c-9.320273 4.808516-17.603937 11.219529-24.618701 19.056008l-6.071276-5.434779C310.754556 375.803062 319.824119 368.782158 330.029552 363.518271zM289.544489 775.288498c-5.259794-10.224876-8.55177-21.214161-9.785877-32.660864l8.100492-0.874927c1.125637 10.45205 4.130064 20.478404 8.930393 29.811979L289.544489 775.288498zM279.214213 446.854281c0-11.494799 2.056845-22.718421 6.113231-33.363875l7.615445 2.90005c-3.702322 9.716292-5.580089 19.964704-5.580089 30.462802l-8.148587 0.172939L279.214213 446.854281zM279.214213 479.82623l8.148587 0 0 32.800034-8.148587 0L279.214213 479.82623zM279.214213 545.423227l8.148587 0 0 32.800034-8.148587 0L279.214213 545.423227zM279.214213 611.024318l8.148587 0 0 32.79594-8.148587 0L279.214213 611.024318zM279.214213 676.620291l8.148587 0 0 32.800034-8.148587 0L279.214213 676.620291z" p-id="1551" fill="#9BDFF0"></path></svg>