<?xml version="1.0" standalone="no"?><!DOCTYPE svg PUBLIC "-//W3C//DTD SVG 1.1//EN" "http://www.w3.org/Graphics/SVG/1.1/DTD/svg11.dtd"><svg t="1563352275767" class="icon" viewBox="0 0 1024 1024" version="1.1" xmlns="http://www.w3.org/2000/svg" p-id="2227" xmlns:xlink="http://www.w3.org/1999/xlink" width="64" height="64"><defs><style type="text/css"></style></defs><path d="M512 0c282.482759 0 512 229.517241 512 512s-229.517241 512-512 512S0 794.482759 0 512 229.517241 0 512 0z" fill="#86B4E7" p-id="2228"></path><path d="M240.993103 564.082759a294.841379 294.841379 0 1 0 589.682759 0 294.841379 294.841379 0 1 0-589.682759 0Z" fill="#FFE57D" p-id="2229"></path><path d="M309.848276 564.082759a225.986207 225.986207 0 1 0 451.972414 0 225.986207 225.986207 0 1 0-451.972414 0Z" fill="#F2A900" p-id="2230"></path><path d="M591.448276 442.262069c-6.17931 0-12.358621 3.531034-15.006897 8.827586l-37.075862 74.151724h-17.655172l-37.075862-74.151724c-4.413793-7.944828-14.124138-11.475862-22.951724-7.944827-7.944828 3.531034-11.475862 13.241379-7.944828 21.186206v0.882759l30.013793 60.027586h-29.131034c-8.827586 0-16.772414 7.062069-16.772414 16.772414s7.062069 16.772414 16.772414 16.772414h61.793103v29.131034h-61.793103c-8.827586 0-16.772414 7.062069-16.772414 16.772414s7.062069 16.772414 16.772414 16.772414h61.793103V662.068966c0 9.710345 7.944828 16.772414 16.772414 16.772413 9.710345 0 16.772414-7.944828 16.772414-16.772413v-41.489656h60.910345c8.827586 0 16.772414-7.062069 16.772413-16.772413s-7.062069-16.772414-16.772413-16.772414h-60.910345v-29.131035h60.910345c8.827586 0 16.772414-7.062069 16.772413-16.772414s-7.062069-16.772414-16.772413-16.772413h-33.544828l30.013793-60.027587c3.531034-7.944828 0.882759-17.655172-7.062069-21.186206h-0.882759c-2.648276 0-5.296552-0.882759-7.944827-0.882759z" fill="#FFFFFF" p-id="2231"></path><path d="M433.434483 297.489655c-15.889655-13.241379-35.310345-20.303448-56.496552-20.303448-3.531034 0-6.17931 0-9.710345 0.882759-7.944828 25.6-16.772414 55.613793-26.482758 78.565517-11.475862 24.717241-21.186207 50.317241-28.248276 76.8l-1.765518 3.531034-11.475862-48.551724-54.731034 34.427586c-55.613793 32.662069-99.751724 48.551724-117.406897 79.448276-19.42069 32.662069-17.655172 98.868966-35.310344 182.731035-3.531034 17.655172-7.944828 52.965517-15.889656 94.455172 58.262069 96.22069 146.537931 170.372414 251.586207 211.862069 10.593103-11.475862 20.303448-23.834483 28.248276-37.075862 35.310345-60.910345 9.710345-97.103448 53.848276-120.055172L370.758621 682.372414c6.17931-44.137931 11.475862-92.689655 30.896551-157.131035 8.827586-27.365517 16.772414-50.317241 29.131035-83.862069 11.475862-29.131034 18.537931-59.144828 20.303448-90.041379v-2.648276c0.882759-18.537931-5.296552-37.075862-17.655172-51.2z" fill="#FFEBCE" p-id="2232"></path><path d="M367.227586 278.068966c1.765517 0 4.413793 0 6.179311-0.882759 0 37.958621-15.006897 75.917241-42.372414 132.413793-12.358621 23.834483-22.951724 46.786207-36.193104 70.62069-16.772414 31.77931-39.724138 60.027586-66.206896 84.744827-19.42069 7.062069-28.248276 6.17931-19.42069-2.648276 49.434483-47.668966 77.682759-86.510345 99.751724-130.648275 11.475862-22.951724 19.42069-44.137931 31.779311-75.034483 10.593103-22.951724 18.537931-52.965517 26.482758-78.565517z" fill="#FFDC9F" p-id="2233"></path><path d="M371.641379 288.662069c-2.648276 9.710345-15.889655 55.613793-20.303448 67.089655 7.062069 13.241379 35.310345 15.006897 40.606897 13.241379 8.827586-3.531034 10.593103-15.006897 14.124138-26.482758s7.944828-27.365517 2.648275-37.075862c-3.531034-7.062069-17.655172-13.241379-37.075862-16.772414z" fill="#FFF9F0" p-id="2234"></path><path d="M790.951724 206.565517c-7.944828-4.413793-17.655172-1.765517-22.068965 6.179311-8.827586 13.241379-17.655172 27.365517-26.482759 41.489655l-7.944828 13.241379c-3.531034 6.17931-1.765517 13.241379 3.531035 17.655172 4.413793 2.648276 9.710345 5.296552 15.006896 6.179311 3.531034-2.648276 7.062069-5.296552 9.710345-8.827586l34.427586-52.965518c5.296552-7.944828 2.648276-17.655172-4.413793-22.951724-1.765517 0.882759-1.765517 0.882759-1.765517 0zM680.606897 196.855172c-1.765517-8.827586-8.827586-14.124138-17.655173-14.124138-8.827586 0.882759-15.889655 8.827586-15.006896 17.655173v0.882759c0 4.413793 1.765517 8.827586 1.765517 13.241379 3.531034 17.655172 7.062069 35.310345 9.710345 50.317241a17.655172 17.655172 0 0 0 20.303448 12.358621c8.827586-2.648276 14.124138-12.358621 12.358621-22.068966-4.413793-19.42069-7.944828-38.841379-11.475862-58.262069zM865.103448 320.441379c-1.765517-8.827586-9.710345-14.124138-18.537931-13.241379h-0.882758c-4.413793 0.882759-8.827586 1.765517-14.124138 2.648276-15.006897 3.531034-30.013793 7.062069-45.903449 10.593103-9.710345 1.765517-15.006897 11.475862-13.241379 21.186207v0.882759c2.648276 8.827586 11.475862 14.124138 20.303448 11.475862h0.882759c19.42069-4.413793 39.724138-8.827586 59.144828-13.241379a17.655172 17.655172 0 0 0 12.35862-20.303449z" fill="#FFFFFF" p-id="2235"></path><path d="M71.503448 773.296552c9.710345 15.889655 19.42069 30.896552 30.013793 45.020689 14.124138-84.744828 25.6-188.027586 45.903449-271.006896s128.882759-112.993103 153.6-150.068966l-3.531035-10.593103c-53.848276 37.075862-154.482759 82.97931-173.020689 112.993103-19.42069 32.662069-17.655172 98.868966-35.310345 182.731035-5.296552 30.896552-11.475862 60.910345-17.655173 90.924138z" fill="#FFDC9F" p-id="2236"></path></svg>