<?xml version="1.0" standalone="no"?><!DOCTYPE svg PUBLIC "-//W3C//DTD SVG 1.1//EN" "http://www.w3.org/Graphics/SVG/1.1/DTD/svg11.dtd"><svg t="1563157118121" class="icon" viewBox="0 0 1025 1024" version="1.1" xmlns="http://www.w3.org/2000/svg" p-id="3910" width="64.0625" height="64" xmlns:xlink="http://www.w3.org/1999/xlink"><defs><style type="text/css"></style></defs><path d="M450.117604 869.588211 108.401896 869.588211c-24.498974 0-44.399209-20.217461-44.399209-45.101197L64.002686 414.477896l832.02878 0L896.031467 199.518103c0-60.749596-48.602951-110.12719-108.400872-110.12719l-83.60514 0L704.025455 24.379247l-64.001663 0 0 65.011666L256.009721 89.390913 256.009721 24.379247l-64.002686 0 0 65.011666-83.60514 0c-59.798944 0-108.401896 49.377594-108.401896 110.12719l0 624.968911c0 60.744479 48.602951 110.11798 108.401896 110.11798l341.715709 0c17.701151 0 31.998785-14.521738 31.998785-32.505321S467.818755 869.588211 450.117604 869.588211zM160.00825 512l224.004797 0 0 65.020876L160.00825 577.020876 160.00825 512zM160.00825 707.044208l224.004797 0 0 65.020876L160.00825 772.065084 160.00825 707.044208zM800.031019 609.522104l-64.002686 0 0 97.522104 0 65.020876 64.002686 0 96.000448 0 0-65.020876-96.000448 0L800.031019 609.522104zM949.037704 555.681872c-48.4075-49.167816-112.604614-76.188216-181.00547-76.188216-68.405973 0-132.705418 27.019377-181.010587 76.188216-48.402383 49.163723-75.003228 114.38926-75.003228 183.872774s26.600845 134.807289 75.003228 183.877891c48.402383 49.163723 112.604614 76.188216 181.010587 76.188216 68.400856 0 132.700301-27.024493 181.00547-76.188216 48.39829-49.172933 74.998111-114.394377 74.998111-183.877891S997.434971 604.748381 949.037704 555.681872zM768.032234 934.603971c-105.909122 0-192.011128-87.467097-192.011128-195.049325s86.102007-195.044208 192.011128-195.044208c105.899912 0 192.001919 87.461981 192.001919 195.044208S873.932146 934.603971 768.032234 934.603971z" p-id="3911" fill="#9BDFF0"></path></svg>