<?xml version="1.0" standalone="no"?><!DOCTYPE svg PUBLIC "-//W3C//DTD SVG 1.1//EN" "http://www.w3.org/Graphics/SVG/1.1/DTD/svg11.dtd"><svg t="1563156880293" class="icon" viewBox="0 0 1024 1024" version="1.1" xmlns="http://www.w3.org/2000/svg" p-id="2860" width="64" height="64" xmlns:xlink="http://www.w3.org/1999/xlink"><defs><style type="text/css"></style></defs><path d="M742.039233 904.150378c-58.397015 0-113.317858-22.757307-154.644079-64.078411-41.323151-41.237193-64.077388-96.154967-64.077387-154.643056 0-58.398038 22.757307-113.317858 64.07841-154.637939 41.241286-41.328267 96.158037-64.083527 154.643056-64.083528 58.403155 0 113.322975 22.75833 154.643056 64.082504 41.324174 41.23924 64.078411 96.154967 64.078411 154.638963 0 58.401108-22.757307 113.320928-64.078411 154.643056-41.243333 41.324174-96.160083 64.078411-154.643056 64.078411z m0-400.701125c-100.344383 0-181.979658 81.635275-181.979657 181.979658 0 100.346429 81.635275 181.984774 181.979657 181.984775s181.979658-81.638345 181.979658-181.984775c0-100.344383-81.636299-181.979658-181.979658-181.979658zM152.074557 846.910723c-47.807842 0-86.702688-38.895869-86.702687-86.707805V209.953779c0-47.807842 38.894845-86.702688 86.702687-86.702687h85.026512V66.00632h36.74181v57.244772h363.964432V66.00632h36.736692v57.244772h85.025489c47.810912 0 86.707804 38.894845 86.707804 86.702687v179.011047H102.113679v371.238092c0 27.551496 22.412452 49.965995 49.960878 49.965995h305.628816c10.126638 0 18.365276 8.240685 18.365276 18.36937 0 10.129708-8.238638 18.371416-18.365276 18.371416H152.074557z m0-686.917822c-27.548426 0-49.960879 22.412452-49.960878 49.960878v142.269238h707.420785V209.953779c0-27.548426-22.415522-49.960879-49.965995-49.960878h-85.025489v85.86153h-36.736693v-85.86153H273.842879v85.86153h-36.74181v-85.86153h-85.026512z m571.59326 543.806403v-122.602316h36.741809v85.86153h85.866647v36.741809H723.667817z m-515.189645 0v-36.741809h179.852204v36.741809H208.478172z m0-171.728176v-36.741809h179.852204v36.741809H208.478172z" p-id="2861" fill="#9BDFF0"></path></svg>